# xmcd
#
# Track frame offsets:
#        150
#        17520
#        35080
#        54613
#        68840
#        82230
#        100913
#        117108
#        136475
#        155010
#        172895
#        193728
#        211798
#        232390
#        249165
#        265158
#
# Disc length: 3757 seconds
#
# Revision: 0
# Processed by: cddbd v1.5.1PL0 Copyright (c) Steve Scherf et al.
# Submitted via: ExactAudioCopy v0.95a5
#
DISCID=e10eab10
DTITLE=Cuarteto Colangelo - Tangos por el Cuarteto Colangelo con Nesto
DTITLE=r Marconi
DYEAR=2003
DGENRE=Tango
TTITLE0=Temperamental
TTITLE1=Danzarin
TTITLE2=Buenos Aires Tokio
TTITLE3=Nocturna
TTITLE4=Solemne
TTITLE5=Nostalgico
TTITLE6=Tierrita
TTITLE7=La bordona
TTITLE8=La baranda
TTITLE9=Orgullo criollo
TTITLE10=Romance de tango
TTITLE11=Todo corazon
TTITLE12=La cachila
TTITLE13=Recuerdos de bohemia
TTITLE14=Don Agustin Bardi
TTITLE15=Todos los suenos
EXTD=
EXTT0=
EXTT1=
EXTT2=
EXTT3=
EXTT4=
EXTT5=
EXTT6=
EXTT7=
EXTT8=
EXTT9=
EXTT10=
EXTT11=
EXTT12=
EXTT13=
EXTT14=
EXTT15=
PLAYORDER=
